#!OML:ASF H:\Dans Jumps\Project 1\Capture day 1\Session 1\subject.ASF
:FULLY-SPECIFIED
:DEGREES
430
root 0.419467 17.6011 6.92905 8.60247 -0.506475 -2.2675
lowerback -3.05024 0.405655 0.511324
upperback 1.51497 0.47786 1.32643
thorax 3.26082 0.233999 1.10539
lowerneck -12.279 -0.322729 -1.966
upperneck 35.4643 -0.854212 2.57205
head 14.1888 -0.284022 1.2635
rclavicle -8.27441e-015 8.94531e-016
rhumerus -27.732 -16.5784 -78.2998
rradius 25.498
rwrist 34.9703
rhand -23.006 -28.1978
rfingers 7.12502
rthumb 3.43734 -58.1498
lclavicle -8.27441e-015 8.94531e-016
lhumerus -28.0574 -3.85557 88.5108
lradius 24.2941
lwrist 13.0481
lhand -28.8446 -6.49866
lfingers 7.12502
lthumb -2.20159 23.4697
rfemur -13.8532 -2.78154 21.0984
rtibia 23.3397
rfoot -15.8057 1.05071
rtoes 16.2156
lfemur -13.7763 8.84736 -17.4483
ltibia 22.7423
lfoot -13.3098 6.39699
ltoes -1.88257
431
root 0.416746 17.6006 6.92292 8.57704 -0.519268 -2.25034
lowerback -3.04838 0.405493 0.502591
upperback 1.52276 0.477941 1.32655
thorax 3.26774 0.23383 1.11046
lowerneck -12.2871 -0.318445 -1.96777
upperneck 35.4531 -0.836217 2.54218
head 14.1848 -0.280427 1.25426
rclavicle 1.41634e-015 9.93923e-016
rhumerus -27.6123 -16.5877 -78.3661
rradius 25.5272
rwrist 34.8817
rhand -22.8466 -28.0762
rfingers 7.12502
rthumb 3.59123 -58.0257
lclavicle 1.41634e-015 9.93923e-016
lhumerus -27.9776 -3.65138 88.4218
lradius 24.0198
lwrist 12.7889
lhand -28.8107 -6.46433
lfingers 7.12502
lthumb -2.16892 23.5044
rfemur -13.8662 -2.74373 21.0852
rtibia 23.3739
rfoot -15.8016 1.04168
rtoes 16.2747
lfemur -13.7485 8.84023 -17.4538
ltibia 22.704
lfoot -13.2956 6.39736
ltoes -1.8136
432
root 0.414231 17.6003 6.91699 8.55123 -0.532159 -2.22951
lowerback -3.04678 0.40425 0.489667
upperback 1.53023 0.476784 1.32611
thorax 3.27447 0.232959 1.11723
lowerneck -12.2918 -0.314586 -1.96745
upperneck 35.433 -0.820365 2.51489
head 14.176 -0.277146 1.24521
rclavicle 1.963e-015 -6.95746e-016
rhumerus -27.5008 -16.6051 -78.4299
rradius 25.5559
rwrist 34.7856
rhand -22.7048 -27.9489
rfingers 7.12502
rthumb 3.72814 -57.8961
lclavicle 1.963e-015 -6.95746e-016
lhumerus -27.9099 -3.42234 88.3338
lradius 23.7442
lwrist 12.5095
lhand -28.7679 -6.41979
lfingers 7.12502
lthumb -2.12755 23.5493
rfemur -13.8793 -2.70545 21.0675
rtibia 23.41
rfoot -15.7992 1.03054
rtoes 16.3277
lfemur -13.7164 8.83128 -17.4634
ltibia 22.659
lfoot -13.2791 6.39644
ltoes -1.74977
433
root 0.412022 17.6001 6.91156 8.52546 -0.545645 -2.20486
lowerback -3.04821 0.401616 0.473002
upperback 1.53607 0.473921 1.32561
thorax 3.28121 0.231158 1.12597
lowerneck -12.2916 -0.309019 -1.96127
upperneck 35.4026 -0.802117 2.48348
head 14.1613 -0.272621 1.23363
rclavicle 1.81391e-015 -3.18055e-015
rhumerus -27.4033 -16.6224 -78.4898
rradius 25.5871
rwrist 34.6786
rhand -22.5735 -27.8305
rfingers 7.12502
rthumb 3.85495 -57.7754
lclavicle 1.81391e-015 -3.18055e-015
lhumerus -27.8586 -3.16794 88.2465
lradius 23.473
lwrist 12.2132
lhand -28.7093 -6.36773
lfingers 7.12502
lthumb -2.07094 23.602
rfemur -13.8902 -2.67336 21.0447
rtibia 23.4452
rfoot -15.8004 1.02223
rtoes 16.3698
lfemur -13.6761 8.8212 -17.4782
ltibia 22.6036
lfoot -13.2602 6.39561
ltoes -1.68508
434
root 0.410216 17.6002 6.90683 8.50332 -0.560082 -2.16644
lowerback -3.0585 0.397866 0.444655
upperback 1.54036 0.47012 1.32122
thorax 3.29131 0.228675 1.13726
lowerneck -12.2946 -0.302665 -1.95251
upperneck 35.3665 -0.783203 2.45171
head 14.1447 -0.267484 1.22148
rclavicle 1.16786e-015 -1.44119e-014
rhumerus -27.3242 -16.6354 -78.547
rradius 25.6293
rwrist 34.5619
rhand -22.4481 -27.7272
rfingers 7.12502
rthumb 3.97606 -57.6699
lclavicle 1.16786e-015 -1.44119e-014
lhumerus -27.8214 -2.89907 88.1629
lradius 23.2045
lwrist 11.902
lhand -28.6527 -6.3156
lfingers 7.12502
lthumb -2.01631 23.6546
rfemur -13.9006 -2.65395 21.0057
rtibia 23.4759
rfoot -15.8042 1.02118
rtoes 16.3915
lfemur -13.631 8.80986 -17.5105
ltibia 22.5387
lfoot -13.2404 6.39612
ltoes -1.61861
435
root 0.408788 17.6004 6.90265 8.482 -0.574047 -2.12439
lowerback -3.07276 0.393419 0.416092
upperback 1.54376 0.465427 1.31506
thorax 3.30276 0.225758 1.14682
lowerneck -12.3001 -0.296522 -1.94473
upperneck 35.3224 -0.765998 2.42491
head 14.1251 -0.262529 1.21116
rclavicle -5.66536e-015 -1.20265e-014
rhumerus -27.261 -16.6489 -78.6016
rradius 25.6807
rwrist 34.4432
rhand -22.3276 -27.6445
rfingers 7.12502
rthumb 4.09247 -57.5849
lclavicle -5.66536e-015 -1.20265e-014
lhumerus -27.797 -2.63404 88.0863
lradius 22.9378
lwrist 11.5872
lhand -28.5994 -6.2885
lfingers 7.12502
lthumb -1.96486 23.6822
rfemur -13.9074 -2.64613 20.9619
rtibia 23.5018
rfoot -15.8112 1.02689
rtoes 16.3951
lfemur -13.5791 8.79799 -17.5484
ltibia 22.4643
lfoot -13.2189 6.39748
ltoes -1.54664
436
root 0.407559 17.6006 6.89879 8.46298 -0.589544 -2.08743
lowerback -3.09067 0.388658 0.393384
upperback 1.54811 0.459972 1.30997
thorax 3.31731 0.222567 1.1542
lowerneck -12.3094 -0.294908 -1.94543
upperneck 35.2676 -0.756964 2.40908
head 14.1018 -0.260752 1.2054
rclavicle -7.28049e-015 -6.65929e-015
rhumerus -27.2095 -16.6637 -78.6559
rradius 25.7434
rwrist 34.3297
rhand -22.2154 -27.5788
rfingers 7.12502
rthumb 4.20076 -57.5171
lclavicle -7.28049e-015 -6.65929e-015
lhumerus -27.7821 -2.38018 88.0193
lradius 22.6762
lwrist 11.2825
lhand -28.548 -6.27808
lfingers 7.12502
lthumb -1.91516 23.6931
rfemur -13.9118 -2.6392 20.9234
rtibia 23.5201
rfoot -15.8183 1.03186
rtoes 16.378
lfemur -13.5258 8.78887 -17.5818
ltibia 22.3848
lfoot -13.1953 6.39897
ltoes -1.46854
437
root 0.406547 17.601 6.89511 8.44861 -0.605979 -2.04517
lowerback -3.11635 0.382557 0.366454
upperback 1.55547 0.452867 1.30276
thorax 3.33936 0.218462 1.16177
lowerneck -12.3365 -0.298839 -1.96268
upperneck 35.212 -0.758597 2.41355
head 14.0827 -0.263009 1.20924
rclavicle -5.11871e-015 -1.15295e-014
rhumerus -27.1574 -16.6903 -78.7116
rradius 25.8065
rwrist 34.2327
rhand -22.1176 -27.5223
rfingers 7.12502
rthumb 4.29519 -57.4587
lclavicle -5.11871e-015 -1.15295e-014
lhumerus -27.7756 -2.13919 87.9615
lradius 22.4261
lwrist 10.9877
lhand -28.495 -6.27029
lfingers 7.12502
lthumb -1.86397 23.7013
rfemur -13.9156 -2.63613 20.8788
rtibia 23.5282
rfoot -15.8239 1.03802
rtoes 16.3443
lfemur -13.4771 8.78103 -17.6231
ltibia 22.3054
lfoot -13.1707 6.40119
ltoes -1.39306
438
root 0.405717 17.6015 6.89156 8.43517 -0.623321 -2.01594
lowerback -3.14445 0.376558 0.354661
upperback 1.56651 0.445078 1.29791
thorax 3.3667 0.2143 1.16328
lowerneck -12.3842 -0.306234 -1.99268
upperneck 35.1586 -0.766694 2.4325
head 14.0696 -0.267742 1.22031
rclavicle -2.88238e-015 -1.39149e-015
rhumerus -27.1029 -16.7246 -78.7699
rradius 25.8643
rwrist 34.1507
rhand -22.0316 -27.4728
rfingers 7.12502
rthumb 4.37824 -57.4076
lclavicle -2.88238e-015 -1.39149e-015
lhumerus -27.7783 -1.91773 87.914
lradius 22.1946
lwrist 10.7157
lhand -28.415 -6.20421
lfingers 7.12502
lthumb -1.78673 23.7681
rfemur -13.914 -2.63071 20.848
rtibia 23.5249
rfoot -15.8271 1.04455
rtoes 16.3022
lfemur -13.4312 8.77807 -17.6508
ltibia 22.2296
lfoot -13.1474 6.40121
ltoes -1.31316
439
root 0.405155 17.602 6.88796 8.42229 -0.639129 -1.99708
lowerback -3.16958 0.368087 0.354129
upperback 1.57718 0.43339 1.29714
thorax 3.39212 0.208405 1.16239
lowerneck -12.4422 -0.313094 -2.03154
upperneck 35.1004 -0.772745 2.45558
head 14.0567 -0.272168 1.23488
rclavicle 9.69075e-016 1.78906e-015
rhumerus -27.0541 -16.7479 -78.8287
rradius 25.9176
rwrist 34.0683
rhand -21.956 -27.4248
rfingers 7.12502
rthumb 4.45123 -57.358
lclavicle 9.69075e-016 1.78906e-015
lhumerus -27.8034 -1.70384 87.878
lradius 21.9887
lwrist 10.4627
lhand -28.3364 -6.1371
lfingers 7.12502
lthumb -1.71082 23.8358
rfemur -13.9071 -2.62634 20.8276
rtibia 23.5116
rfoot -15.8288 1.05508
rtoes 16.2825
lfemur -13.3884 8.7762 -17.6679
ltibia 22.1586
lfoot -13.1255 6.3996
ltoes -1.23298
440
root 0.404888 17.6026 6.88443 8.4092 -0.653927 -1.98446
lowerback -3.19035 0.358399 0.362287
upperback 1.58511 0.419703 1.29818
thorax 3.41234 0.201704 1.1583
lowerneck -12.4993 -0.320364 -2.06681
upperneck 35.029 -0.777687 2.47161
head 14.0375 -0.276561 1.2459
rclavicle -6.13748e-015 -9.74045e-015
rhumerus -27.0212 -16.7517 -78.8863
rradius 25.9688
rwrist 33.9737
rhand -21.8853 -27.3726
rfingers 7.12502
rthumb 4.51955 -57.3044
lclavicle -6.13748e-015 -9.74045e-015
lhumerus -27.8559 -1.49909 87.8522
lradius 21.8101
lwrist 10.2154
lhand -28.2619 -6.0797
lfingers 7.12502
lthumb -1.63889 23.8938
rfemur -13.8953 -2.62334 20.8128
rtibia 23.4909
rfoot -15.8291 1.06758
rtoes 16.2568
lfemur -13.347 8.77369 -17.6788
ltibia 22.0922
lfoot -13.1073 6.39631
ltoes -1.14691
441
root 0.404843 17.6032 6.88071 8.39641 -0.667523 -1.97799
lowerback -3.19991 0.346939 0.376279
upperback 1.58549 0.403483 1.30307
thorax 3.41847 0.193871 1.15459
lowerneck -12.5292 -0.324005 -2.07138
upperneck 34.919 -0.772196 2.44945
head 13.9942 -0.277534 1.23692
rclavicle -8.94531e-016 2.98177e-015
rhumerus -27.0098 -16.7333 -78.9387
rradius 26.0183
rwrist 33.8675
rhand -21.8129 -27.3217
rfingers 7.12502
rthumb 4.58943 -57.252
lclavicle -8.94531e-016 2.98177e-015
lhumerus -27.9335 -1.309 87.8384
lradius 21.6522
lwrist 9.98394
lhand -28.1813 -6.02232
lfingers 7.12502
lthumb -1.56105 23.9517
rfemur -13.8821 -2.61807 20.8039
rtibia 23.4665
rfoot -15.8293 1.07903
rtoes 16.24
lfemur -13.3081 8.76827 -17.6834
ltibia 22.0291
lfoot -13.0895 6.39415
ltoes -1.06492
